# File created by Blade
# Date/Time:  Wed Jan 21 15:23:43 2015
# Frame Rate: 120.000 fps
#------------------------------------------------------
:FULLY-SPECIFIED
:DEGREES
1660
root 20.103624 35.641607 -21.160812 -174.365699 0.372288 -177.935092
Spine -13.834431 -0.064294 2.091108
Head 7.609653 -0.628853 -0.857450
LeftShoulder -11.845563 -35.143833 19.626799
LeftArm 1.018543 1.426456 -5.464550
LeftForeArm 11.001834 -0.000000 -2.926321
LeftHand -9.899366 -0.000000 -6.410493
LeftHandThumb1 -26.253704 0.000000 33.147579
RightShoulder -10.570794 -2.411620 -12.015426
RightArm 5.220367 36.473474 9.198059
RightForeArm -35.763030 -0.000000 3.899247
RightHand -4.892390 0.000000 9.920278
RightHandThumb1 -24.326973 -0.000000 -32.862282
LeftUpLeg 2.198963 10.161061 2.882187
LeftLeg -6.166873 -0.000000 0.000000
LeftFoot -19.504676 25.694825 -12.733615
LeftToeBase 26.684892 -0.000000 -0.000000
RightUpLeg -0.047334 -6.477835 1.761830
RightLeg -2.460753 -0.000000 0.000000
RightFoot -19.519786 -24.733063 14.789642
RightToeBase 23.579545 -0.000000 -0.000000
1661
root 20.094874 35.640634 -21.174785 -174.336106 0.412765 -177.942288
Spine -13.886952 -0.032718 2.053011
Head 7.674098 -0.579992 -0.831829
LeftShoulder -11.831033 -35.176517 19.651096
LeftArm 1.032946 1.413705 -5.497523
LeftForeArm 10.970561 -0.000000 -2.971996
LeftHand -9.838545 0.000000 -6.451265
LeftHandThumb1 -26.253704 0.000000 33.147579
RightShoulder -10.567473 -2.442499 -12.018184
RightArm 5.281002 36.469742 9.277217
RightForeArm -35.701784 -0.000000 3.879487
RightHand -4.821152 -0.000000 9.924344
RightHandThumb1 -24.326973 -0.000000 -32.862282
LeftUpLeg 2.213736 10.222702 2.854373
LeftLeg -6.198344 -0.000000 0.000000
LeftFoot -19.518029 25.686793 -12.754821
LeftToeBase 26.700911 -0.000000 -0.000000
RightUpLeg -0.039352 -6.521379 1.740134
RightLeg -2.499364 -0.000000 0.000000
RightFoot -19.474746 -24.684306 14.745382
RightToeBase 23.544576 -0.000000 -0.000000
1662
root 20.090948 35.639261 -21.199083 -174.373022 0.347794 -177.938496
Spine -13.881954 -0.089117 2.022551
Head 7.719284 -0.608279 -0.787577
LeftShoulder -11.830803 -35.148182 19.691904
LeftArm 1.097505 1.477123 -5.590764
LeftForeArm 10.608006 -0.000000 -2.985642
LeftHand -9.933248 -0.000000 -6.446338
LeftHandThumb1 -26.253704 0.000000 33.147579
RightShoulder -10.584198 -2.482046 -12.002388
RightArm 5.346797 36.494584 9.348800
RightForeArm -35.634990 -0.000000 3.844330
RightHand -4.754548 -0.000000 9.953911
RightHandThumb1 -24.326973 -0.000000 -32.862282
LeftUpLeg 2.309179 10.175753 2.867483
LeftLeg -6.255611 -0.000000 0.000000
LeftFoot -19.508815 25.683640 -12.757542
LeftToeBase 26.693207 -0.000000 -0.000000
RightUpLeg 0.089261 -6.742603 1.739611
RightLeg -2.599046 -0.000000 0.000000
RightFoot -19.430868 -24.558737 14.756149
RightToeBase 23.541159 -0.000000 -0.000000
1663
root 20.082558 35.638318 -21.215380 -174.372583 0.367982 -177.948032
Spine -13.897577 -0.084064 1.985254
Head 7.754673 -0.613208 -0.744419
LeftShoulder -11.832718 -35.148215 19.721130
LeftArm 1.112570 1.487570 -5.636214
LeftForeArm 10.605509 -0.000000 -2.983595
LeftHand -9.973515 -0.000000 -6.312014
LeftHandThumb1 -26.253704 0.000000 33.147579
RightShoulder -10.539441 -2.526604 -11.981345
RightArm 5.347841 36.632081 9.412936
RightForeArm -35.715729 -0.000000 3.900348
RightHand -4.733669 0.000000 9.975097
RightHandThumb1 -24.326973 -0.000000 -32.862282
LeftUpLeg 2.344514 10.206180 2.844524
LeftLeg -6.267508 -0.000000 0.000000
LeftFoot -19.529211 25.684929 -12.768617
LeftToeBase 26.666582 -0.000000 -0.000000
RightUpLeg 0.128687 -6.841325 1.714429
RightLeg -2.636495 -0.000000 0.000000
RightFoot -19.400668 -24.458392 14.787330
RightToeBase 23.436008 -0.000000 -0.000000
1664
root 20.072634 35.636902 -21.229455 -174.362865 0.424159 -177.957265
Spine -13.918638 -0.039634 1.953758
Head 7.778322 -0.633010 -0.707322
LeftShoulder -11.806190 -35.151498 19.693787
LeftArm 1.126142 1.395687 -5.598717
LeftForeArm 10.852877 -0.000000 -3.010200
LeftHand -9.846972 -0.000000 -6.499576
LeftHandThumb1 -26.253704 0.000000 33.147579
RightShoulder -10.527109 -2.614350 -11.984235
RightArm 5.435031 36.604647 9.494942
RightForeArm -35.626201 0.000000 3.799760
RightHand -4.661311 0.000000 9.860948
RightHandThumb1 -24.326973 -0.000000 -32.862282
LeftUpLeg 2.379551 10.259167 2.815745
LeftLeg -6.294007 -0.000000 0.000000
LeftFoot -19.552344 25.695844 -12.805899
LeftToeBase 26.741022 -0.000000 -0.000000
RightUpLeg 0.146182 -6.876569 1.686944
RightLeg -2.659325 -0.000000 0.000000
RightFoot -19.390865 -24.402469 14.721299
RightToeBase 23.554155 -0.000000 -0.000000
